{
  "asset": {
    "version": "2.0",
    "generator": "3dpea GLTFExporter"
  },
  "scenes": [
    {
      "name": "AuxScene",
      "nodes": [
        1
      ]
    }
  ],
  "scene": 0,
  "nodes": [
    {
      "mesh": 0
    },
    {
      "matrix": [
        1,
        0,
        0,
        0,
        0,
        1,
        0,
        0,
        0,
        0,
        1,
        0,
        -149.5,
        -59.5,
        0,
        1
      ],
      "children": [
        0
      ]
    }
  ],
  "bufferViews": [
    {
      "buffer": 0,
      "byteOffset": 0,
      "byteLength": 399024,
      "target": 34962,
      "byteStride": 12
    },
    {
      "buffer": 0,
      "byteOffset": 399024,
      "byteLength": 266016,
      "target": 34962,
      "byteStride": 8
    },
    {
      "buffer": 0,
      "byteOffset": 665040,
      "byteLength": 399024,
      "target": 34962,
      "byteStride": 12
    },
    {
      "buffer": 0,
      "byteOffset": 1064064,
      "byteLength": 81624,
      "target": 34963
    }
  ],
  "buffers": [
    {
      "byteLength": 1145688,
      "uri": "data:application/octet-stream;base64,"
    }
  ],
  "accessors": [
    {
      "bufferView": 0,
      "componentType": 5126,
      "count": 33252,
      "max": [
        274,
        86,
        7.686274528503418
      ],
      "min": [
        8,
        24,
        0
      ],
      "type": "VEC3"
    },
    {
      "bufferView": 1,
      "componentType": 5126,
      "count": 33252,
      "max": [
        0.9163879752159119,
        0.7226890921592712
      ],
      "min": [
        0.02675585262477398,
        0.20168067514896393
      ],
      "type": "VEC2"
    },
    {
      "bufferView": 2,
      "componentType": 5126,
      "count": 33252,
      "max": [
        0.9916426539421082,
        0.9904307126998901,
        1
      ],
      "min": [
        -0.9894312620162964,
        -0.9910206198692322,
        -1
      ],
      "type": "VEC3"
    },
    {
      "bufferView": 3,
      "componentType": 5123,
      "count": 40812,
      "max": [
        33251
      ],
      "min": [
        0
      ],
      "type": "SCALAR"
    }
  ],
  "materials": [
    {
      "pbrMetallicRoughness": {
        "baseColorFactor": [
          0.4019777798219466,
          0.4019777798219466,
          0.4019777798219466,
          1
        ],
        "metallicFactor": 0.3,
        "roughnessFactor": 0.45
      },
      "doubleSided": true,
      "name": "Default Material"
    }
  ],
  "meshes": [
    {
      "primitives": [
        {
          "mode": 4,
          "attributes": {
            "POSITION": 0,
            "TEXCOORD_0": 1,
            "NORMAL": 2
          },
          "indices": 3,
          "material": 0
        }
      ]
    }
  ]
}